<svg xmlns="http://www.w3.org/2000/svg" viewBox="0 0 640.01 463.48">

<defs><style>.cls-1{fill:#f9ebb4;}.cls-2{fill:#8a0003;}.cls-3{fill:#3bdb00;}.cls-4{fill:#72303a;}.cls-5{fill:#422500;opacity:0.56;}.cls-5,.cls-6{stroke:#ec0005;stroke-miterlimit:10;}.cls-6{fill:none;stroke-width:5px;}</style></defs><title>seed_and_seedleaf</title>

<g id="me_after">

  <path class="cls-2" d="M362.5,1063.09c-3.23-.08-6.43.24-9.65.3a10.55,10.55,0,0,1-6.65-1.77c-2.76-2-4.75-5-6.69-7.74-2.2-3.12-4.29-6.31-6.39-9.5-4.22-6.42-8.36-13-13.24-18.92a32.28,32.28,0,0,1-3.76-5,39.83,39.83,0,0,1-2.62-6.12c-4.07-11.59-6-24-7.7-36.16-1.46-10.62-2.87-21.56-2.59-32.32.18-7,2-13.88,4.37-20.41a112.38,112.38,0,0,1,10.19-21,85.55,85.55,0,0,1,13.36-17c4.93-4.71,10.84-8.32,16.09-12.66a103.87,103.87,0,0,0,13.63-13.55,157.72,157.72,0,0,0,14.24-19.91c1.8-3,2.85-6.2,1.48-9.61a26.09,26.09,0,0,0-3-5.13,25.72,25.72,0,0,0-2.57-3.38c-1.62-1.65-3.59-1.85-5.79-1.59-1.79.21-3.56.57-5.34.88a24.36,24.36,0,0,0-3.68.79c-2.67.89-4.83,2.92-7,4.6-2.8,2.14-5.69,4.15-8.61,6.13-6.46,4.37-13,8.58-19.37,13.15a103.39,103.39,0,0,0-16.93,14.67,47.57,47.57,0,0,0-5.93,8.17c-1.77,3.16-3,7.16-6.12,9.29-3.88,2.63-7.62-.65-10-3.63-2.54-3.18-4.88-6.48-7.54-9.56a127.57,127.57,0,0,0-17.84-17,119.28,119.28,0,0,0-43.33-21.81A97.63,97.63,0,0,0,189.31,824c-2.48,0-6.41.76-7.07,3.64-.42,1.83.95,3.31,2,4.65l4.78,6.29,9.39,12.35a37.78,37.78,0,0,0,8,7.9c3.33,2.43,6.89,4.54,10.34,6.8,2.58,1.69,4.95,3.59,7.38,5.48,5,3.89,10.13,7.59,15.26,11.29q3.93,2.83,7.89,5.65c2.11,1.51,4.34,2.93,6.33,4.6,11.58,9.64,13.18,27,13.85,41,.52,11.16,0,22.3.18,33.46.22,12.45.72,24.89,1.36,37.32.61,11.91,1.35,23.74,4.51,35.31a87.65,87.65,0,0,0,10.32,23.83c4.61,7.25,10.57,13.16,16.87,18.93,6.09,5.57,12.27,11.22,16.37,18.49a.75.75,0,0,0,1.29-.75c-4.12-7.32-10.31-13-16.44-18.65-6.37-5.84-12.41-11.79-17-19.16-8.44-13.45-12.44-29.28-13.61-45-.82-11-1.25-22-1.65-33-.38-10.41-1-20.93-.44-31.35a203.39,203.39,0,0,0-.28-20.36c-.4-7.81-1.2-15.73-3.43-23.26-1.87-6.31-4.89-12.44-9.78-16.95a59.46,59.46,0,0,0-6-4.56l-7.48-5.35c-5.34-3.83-10.68-7.67-15.9-11.67-2.15-1.65-4.21-3.43-6.44-5-3.23-2.26-6.62-4.26-9.9-6.45a38.84,38.84,0,0,1-8.9-7.5c-3.27-4-6.31-8.28-9.45-12.42L187,833.46c-.77-1-1.55-2-2.31-3-.64-.87-1.4-1.91-.77-3,.83-1.41,3.08-1.84,4.56-1.94a44.52,44.52,0,0,1,6,.21A109.37,109.37,0,0,1,241,840.29a125.91,125.91,0,0,1,37.07,32.47c2.22,2.9,4.28,6.4,7.61,8.16a7.25,7.25,0,0,0,8.79-1.58c2.44-2.51,3.58-5.85,5.29-8.83a46.87,46.87,0,0,1,6.28-8.41c10.37-11.27,24-19.05,36.52-27.62,2.82-1.93,5.6-3.91,8.3-6,2.2-1.71,4.27-3.45,7-4.06,1.57-.35,3.18-.58,4.77-.86a19,19,0,0,1,4.63-.5c2.58.19,4,2.91,5.29,4.81,2.29,3.33,4.11,6.63,2.31,10.61a43.24,43.24,0,0,1-3.62,6c-1.22,1.82-2.46,3.64-3.72,5.44A111.49,111.49,0,0,1,339,879.34c-2.66,2-5.39,3.84-7.85,6.07a67.38,67.38,0,0,0-6.9,7.33,107.23,107.23,0,0,0-20.4,39.54,63.61,63.61,0,0,0-2.11,18c.09,4.83.49,9.65.95,14.46a295.57,295.57,0,0,0,5.93,37.89,94.87,94.87,0,0,0,4.6,15.3,27.26,27.26,0,0,0,2.63,5.09c1.53,2.2,3.47,4.13,5.09,6.28,4.74,6.3,8.93,13,13.29,19.57,2,3,4,5.92,6.11,8.76,1.77,2.33,3.74,4.78,6.4,6.14a12.66,12.66,0,0,0,6.22,1.16c3.18-.07,6.34-.36,9.52-.29a.75.75,0,0,0,0-1.5Z" transform="translate(2.51 -737.52)"/>

  <g id="leaf"><g id="leaf_left"><path class="cls-3" d="M231.67,866c-26.68,5.24-54.19-.22-80.75-6.08-21.44-4.72-43.47-10-61.26-22.86s-30.49-35.3-25.42-56.67c3.86-16.29,17.36-29,32.73-35.7,23-9.93,50-7.66,73,2.27s42.32,26.91,58.75,45.81c7.29,8.38,14.25,17.52,17,28.27s.5,23.49-8.19,30.41Z" transform="translate(2.51 -737.52)"/><path class="cls-2" d="M231.47,865.26c-19.2,3.73-38.91,1.92-58-1.51-9.31-1.67-18.56-3.69-27.78-5.78-8.39-1.9-16.75-4-24.93-6.63C105,846.21,89.67,838.59,78.63,826c-10.07-11.5-16.79-27.12-14.23-42.6,2.5-15.13,13.42-27.38,26.43-34.79,14.85-8.46,32.55-10.87,49.37-8.93,17.28,2,33.64,8.63,48.19,18,14.2,9.16,26.67,20.79,37.88,33.39,10.64,12,22.14,26.66,19.52,43.75A27.83,27.83,0,0,1,242.24,845a22.54,22.54,0,0,1-3.32,4.27c-.69.7-1.71,1.27-2.12,2.16-1.67,3.63-3,7.44-4.53,11.14L231,865.78c-.36.9,1.09,1.28,1.45.4l4.27-10.5,1.12-2.75a4.65,4.65,0,0,1,.52-1.28,3.64,3.64,0,0,0,.64-.38q.47-.4.9-.84a23.46,23.46,0,0,0,1.88-2.1,25.18,25.18,0,0,0,2.81-4.46,33.37,33.37,0,0,0,2.37-21.3c-1.73-8.47-6.32-16.12-11.52-22.91a202,202,0,0,0-17.28-19.47,189.28,189.28,0,0,0-19.38-17.07c-13.84-10.54-29.52-18.85-46.52-22.87-17.23-4.07-35.76-3.87-52.43,2.48-14.2,5.41-27.34,15.63-33.64,29.76-6.41,14.37-4,30.51,3.74,43.86,8.4,14.53,22,24.67,37.12,31.37,16.45,7.26,34.26,10.94,51.76,14.65,19.38,4.11,39.23,7.55,59.11,6.17a117.58,117.58,0,0,0,14-1.83C232.82,866.52,232.42,865.08,231.47,865.26Z" transform="translate(2.51 -737.52)"/><path class="cls-2" d="M74,766.89a.75.75,0,0,0,0-1.5.75.75,0,0,0,0,1.5Z" transform="translate(2.51 -737.52)"/><path class="cls-2" d="M68.19,776.28c7.29-10.93,20.49-15.25,33-16.21,13.42-1,27.14,1.26,40.06,4.76a160.4,160.4,0,0,1,38,15.82,163.06,163.06,0,0,1,32.81,24.86A155.14,155.14,0,0,1,237.54,838q1.28,2.19,2.48,4.42c.46.84,1.76.09,1.3-.76a156.3,156.3,0,0,0-24.87-33.92,164.73,164.73,0,0,0-32.71-26.23,162.9,162.9,0,0,0-38.44-17.14c-13.07-3.88-27-6.49-40.67-6-12.57.43-26.25,3.7-34.91,13.47a33.52,33.52,0,0,0-2.82,3.68c-.54.8.76,1.55,1.29.75Z" transform="translate(2.51 -737.52)"/><path class="cls-2" d="M88.26,832c-11.58-16.11-7.74-39.88,5.85-53.6a36.37,36.37,0,0,1,13.64-8.72c.45-.16.26-.89-.2-.73-9.37,3.32-16.85,10.47-21.46,19.18a46,46,0,0,0-4.84,28.89,37.16,37.16,0,0,0,6.36,15.36c.28.39.93,0,.65-.38Z" transform="translate(2.51 -737.52)"/><path class="cls-2" d="M136.1,848.19c-11-14.28-13.6-34-7.71-50.94a50.76,50.76,0,0,1,7-13.38c.29-.39-.36-.76-.64-.38-10.8,14.71-13,34.87-6.64,51.85a51.56,51.56,0,0,0,7.32,13.23c.29.38.94,0,.65-.38Z" transform="translate(2.51 -737.52)"/><path class="cls-2" d="M198.36,860.63a50.12,50.12,0,0,1-9.4-37.75,48.13,48.13,0,0,1,3-10.65c.18-.45-.54-.64-.72-.2a50.83,50.83,0,0,0,.63,38.94,48.81,48.81,0,0,0,5.88,10c.29.38.94,0,.65-.38Z" transform="translate(2.51 -737.52)"/><path class="cls-2" d="M125.79,753.66a41.68,41.68,0,0,1,25.34-10.51c.48,0,.48-.77,0-.75a42.49,42.49,0,0,0-25.87,10.73c-.36.32.17.85.53.53Z" transform="translate(2.51 -737.52)"/><path class="cls-2" d="M164,764h23.14a.38.38,0,0,0,0-.75H164a.38.38,0,0,0,0,.75Z" transform="translate(2.51 -737.52)"/><path class="cls-2" d="M213,797.23a26.83,26.83,0,0,1,17.87-5c.48,0,.48-.71,0-.75a27.5,27.5,0,0,0-18.25,5.05c-.39.28,0,.93.38.65Z" transform="translate(2.51 -737.52)"/></g><g id="leaf_right"><path class="cls-3" d="M343.35,871c26.68,5.24,54.19-.22,80.75-6.08,21.45-4.72,43.47-10,61.27-22.86s30.48-35.3,25.41-56.67c-3.86-16.29-17.36-29-32.73-35.7-23-9.93-50-7.66-73,2.27s-42.31,26.91-58.75,45.81c-7.28,8.38-14.25,17.52-17,28.27s-.5,23.49,8.19,30.41Z" transform="translate(2.51 -737.52)"/><path class="cls-2" d="M343.15,871.71c19.48,3.78,39.43,2,58.81-1.51,9.59-1.72,19.12-3.81,28.62-6a262.44,262.44,0,0,0,25.72-7c15.93-5.38,31.38-13.44,42.29-26.55,9.79-11.78,16-27.26,13.48-42.73-2.52-15.23-13.45-27.7-26.47-35.31-15-8.77-33-11.44-50.13-9.58-17.5,1.9-34.1,8.42-48.89,17.85-14.6,9.3-27.42,21.18-38.89,34.08-10.75,12.09-22.15,26.72-20.08,43.93a30.63,30.63,0,0,0,3,10.25,24.23,24.23,0,0,0,2.88,4.41,19.32,19.32,0,0,0,1.78,1.95c.29.29.6.57.91.84a2.3,2.3,0,0,0,.51.28,5.72,5.72,0,0,1,.57,1.4l1.15,2.82,2.79,6.85,1.4,3.44c.36.88,1.81.5,1.44-.4L340,860.7c-.59-1.44-1.11-2.94-1.77-4.35-.44-.93-1.62-1.61-2.34-2.36a22.43,22.43,0,0,1-3.25-4.32c-3.7-6.35-4.51-14.21-3.13-21.35,1.62-8.35,6.1-15.87,11.19-22.56a196.1,196.1,0,0,1,17-19.21,187.56,187.56,0,0,1,18.87-16.75c13.51-10.38,28.79-18.65,45.39-22.79,16.93-4.23,35.15-4.26,51.68,1.71,14.19,5.13,27.32,15.1,33.74,29,6.62,14.36,3.86,30.64-4.1,43.85-8.56,14.19-22.14,23.9-37.17,30.34-16.14,6.92-33.59,10.48-50.7,14.1-18.95,4-38.33,7.31-57.76,6a112.94,112.94,0,0,1-14.08-1.81C342.61,870.08,342.2,871.52,343.15,871.71Z" transform="translate(2.51 -737.52)"/><path class="cls-2" d="M341.84,854.32c6.73-22.73,23-41.55,42.33-54.78a175.12,175.12,0,0,1,35.25-18.27,279.23,279.23,0,0,1,37-11.74c13.68-3.26,28.89-4.9,41.75,2,.85.46,1.61-.83.76-1.29-11.38-6.14-24.63-5.81-37-3.46a191.83,191.83,0,0,0-18.87,4.83c-6.56,2-13.06,4.06-19.48,6.44-23.91,8.84-46.9,21.54-63.75,41a94.9,94.9,0,0,0-19.46,34.79.75.75,0,0,0,1.45.4Z" transform="translate(2.51 -737.52)"/><path class="cls-2" d="M369.21,820.47a73.46,73.46,0,0,1,43.29,24.11,70.58,70.58,0,0,1,8.33,11.75c.23.42.88,0,.64-.38a74.14,74.14,0,0,0-37.87-32.4,71.82,71.82,0,0,0-14.19-3.8c-.47-.08-.67.65-.2.72Z" transform="translate(2.51 -737.52)"/><path class="cls-2" d="M423.84,794.92c17-3.62,35.39,4.15,45.74,17.92a41.91,41.91,0,0,1,6.59,12.9c.14.46.87.26.73-.2-5.21-17-21.22-29.51-38.65-31.87a42.45,42.45,0,0,0-14.61.53c-.47.1-.27.82.2.72Z" transform="translate(2.51 -737.52)"/><path class="cls-2" d="M475.27,776.91c12-2.77,25.13,5.62,27.72,17.63.1.48.83.28.72-.2-2.68-12.42-16.26-21-28.64-18.15-.47.11-.27.83.2.72Z" transform="translate(2.51 -737.52)"/><path class="cls-2" d="M436.57,751.05a33.12,33.12,0,0,1,20.34,5.19c.41.26.79-.39.38-.65a33.82,33.82,0,0,0-20.72-5.29c-.48,0-.48.78,0,.75Z" transform="translate(2.51 -737.52)"/><path class="cls-2" d="M387.71,771.66H416a.38.38,0,0,0,0-.75H387.71a.38.38,0,0,0,0,.75Z" transform="translate(2.51 -737.52)"/><path class="cls-2" d="M341.39,812.42A31.53,31.53,0,0,1,367,808a.38.38,0,0,0,.2-.73A32.31,32.31,0,0,0,341,811.78c-.39.27,0,.92.38.64Z" transform="translate(2.51 -737.52)"/></g></g>
</g>

<g id="seed"><path class="cls-4" d="M319.4,1080.88c4.48-13.82,19.87-20.41,33.7-24.86,17.45-5.62,35.91-10.56,53.95-7.25s35.39,17.17,36.84,35.46c.6,7.51-1.46,15-3.59,22.19-1.85,6.3-4.13,13.08-9.58,16.74-3.93,2.63-8.86,3.17-13.57,3.63l-25.8,2.53c-16.45,1.62-33.48,3.17-49.17-2s-29.73-19.18-29.58-35.72Z" transform="translate(2.51 -737.52)"/><path class="cls-2" d="M320.12,1081.08c3.27-9.84,12.26-15.87,21.32-19.91a141.35,141.35,0,0,1,15.48-5.58,189.54,189.54,0,0,1,19.86-5.22c12.36-2.44,25.61-3.1,37.66,1.15,9.69,3.41,18.7,9.86,24.07,18.72a31.94,31.94,0,0,1,4.67,14.46c.45,7-1.38,13.92-3.33,20.6-1.51,5.16-3.08,10.73-6.77,14.81-4.24,4.69-10.49,5.4-16.43,6-13.83,1.36-27.68,3.1-41.56,3.81-12.73.66-26.23.1-37.94-5.46-9.32-4.42-17.74-12-21.64-21.68a29.66,29.66,0,0,1-2-7.63c-.07-.59-.12-1.19-.15-1.78,0-.31-.16-1.35-.14-1.43a3.47,3.47,0,0,1,.45-.7l5.08-8,1.27-2c.52-.82-.78-1.57-1.3-.76l-4.45,7c-.71,1.11-1.46,2.21-2.14,3.34-.8,1.35-.21,3.7,0,5.19,1.5,10.64,8.6,19.65,17.24,25.65,10.49,7.3,23.34,9.7,35.92,9.92,14.32.24,28.67-1.79,42.9-3.18,3.67-.36,7.35-.68,11-1.09a33.14,33.14,0,0,0,8.76-1.91c5.39-2.17,8.63-6.79,10.75-12a84.28,84.28,0,0,0,2.69-8.19,97.33,97.33,0,0,0,2.63-10.78,36.75,36.75,0,0,0-1-17.92c-3.34-10-11.23-17.92-20.33-22.92-11-6-23.55-7.45-35.86-6.26a127.93,127.93,0,0,0-20.73,4c-6.27,1.68-12.52,3.58-18.62,5.79-9.6,3.48-19.77,8.28-25.67,17a26.16,26.16,0,0,0-3.19,6.55C318.37,1081.6,319.82,1082,320.12,1081.08Z" transform="translate(2.51 -737.52)"/></g>

<g id="ground"><rect class="cls-5" x="2.14" y="212.98" width="637.37" height="250"/><line class="cls-6" x1="0.01" y1="213.98" x2="639.51" y2="210.98"/></g>

</svg>
